<svg width="70" height="70" viewBox="0 0 70 70" fill="none" xmlns="http://www.w3.org/2000/svg">
<rect width="70" height="70" rx="35" fill="#E5F7F8"/>
<path d="M45.334 37.2083V27.8897" stroke="#00ADB5" stroke-width="2" stroke-linecap="round" stroke-linejoin="round"/>
<path d="M38.666 42.5417H25.3327C24.6254 42.5417 23.9472 42.2607 23.4471 41.7606C22.947 41.2605 22.666 40.5822 22.666 39.875V27.875" stroke="#00ADB5" stroke-width="2" stroke-linecap="round" stroke-linejoin="round"/>
<path d="M42.6513 25.2083H25.3473C24.6362 25.2083 23.9542 25.4908 23.4514 25.9937C22.9485 26.4965 22.666 27.1785 22.666 27.8897V27.8897C22.6667 28.3268 22.7744 28.7572 22.9796 29.1432C23.1848 29.5293 23.4814 29.8592 23.8433 30.1043L30.986 34.9497C31.8758 35.5525 32.9259 35.8747 34.0007 35.8747C35.0755 35.8747 36.1256 35.5525 37.0153 34.9497L44.1567 30.1043C44.518 29.8589 44.814 29.5291 45.0189 29.1434C45.2238 28.7577 45.3315 28.3278 45.3327 27.891V27.891C45.3329 27.5388 45.2636 27.19 45.129 26.8645C44.9943 26.539 44.7968 26.2433 44.5478 25.9941C44.2988 25.745 44.0032 25.5474 43.6778 25.4126C43.3524 25.2777 43.0036 25.2083 42.6513 25.2083V25.2083Z" stroke="#00ADB5" stroke-width="2" stroke-linecap="round" stroke-linejoin="round"/>
<path d="M47.7707 38.771C48.5165 39.5169 49.0245 40.4672 49.2302 41.5018C49.436 42.5363 49.3304 43.6087 48.9267 44.5832C48.523 45.5577 47.8394 46.3906 46.9624 46.9767C46.0853 47.5627 45.0542 47.8755 43.9994 47.8755C42.9445 47.8755 41.9134 47.5627 41.0363 46.9767C40.1593 46.3906 39.4757 45.5577 39.072 44.5832C38.6683 43.6087 38.5627 42.5363 38.7685 41.5018C38.9742 40.4672 39.4822 39.5169 40.228 38.771C40.7233 38.2757 41.3112 37.8829 41.9583 37.6148C42.6054 37.3468 43.2989 37.2088 43.9994 37.2088C44.6998 37.2088 45.3933 37.3468 46.0404 37.6148C46.6875 37.8829 47.2754 38.2757 47.7707 38.771" stroke="#00ADB5" stroke-width="2" stroke-linecap="round" stroke-linejoin="round"/>
<path d="M46.0728 41.5043L43.4795 44.0977L41.9248 42.5417" stroke="#00ADB5" stroke-width="2" stroke-linecap="round" stroke-linejoin="round"/>
</svg>
