<svg width="70" height="70" viewBox="0 0 70 70" fill="none" xmlns="http://www.w3.org/2000/svg">
<rect width="70" height="70" rx="35" fill="#FEEBEE"/>
<path d="M44.333 36.3333V27.0147" stroke="#E03B3A" stroke-width="2" stroke-linecap="round" stroke-linejoin="round"/>
<path d="M37.667 41.6667H24.3337C23.6264 41.6667 22.9481 41.3857 22.448 40.8856C21.9479 40.3855 21.667 39.7072 21.667 39V27" stroke="#E03B3A" stroke-width="2" stroke-linecap="round" stroke-linejoin="round"/>
<path d="M41.6523 24.3333H24.3483C23.6372 24.3333 22.9552 24.6158 22.4523 25.1187C21.9495 25.6215 21.667 26.3035 21.667 27.0147V27.0147C21.6677 27.4518 21.7754 27.8822 21.9806 28.2682C22.1858 28.6542 22.4823 28.9842 22.8443 29.2293L29.987 34.0747C30.8768 34.6775 31.9269 34.9997 33.0017 34.9997C34.0764 34.9997 35.1265 34.6775 36.0163 34.0747L43.1577 29.2293C43.519 28.9839 43.8149 28.6541 44.0199 28.2684C44.2248 27.8827 44.3325 27.4528 44.3337 27.016V27.016C44.3338 26.6638 44.2646 26.315 44.1299 25.9895C43.9953 25.664 43.7978 25.3683 43.5488 25.1191C43.2998 24.87 43.0041 24.6724 42.6787 24.5376C42.3533 24.4027 42.0046 24.3333 41.6523 24.3333V24.3333Z" stroke="#E03B3A" stroke-width="2" stroke-linecap="round" stroke-linejoin="round"/>
<path d="M46.7717 37.8955C47.5175 38.6414 48.0254 39.5917 48.2312 40.6263C48.437 41.6608 48.3313 42.7332 47.9277 43.7077C47.524 44.6822 46.8404 45.5152 45.9633 46.1012C45.0863 46.6872 44.0552 47 43.0003 47C41.9455 47 40.9144 46.6872 40.0373 46.1012C39.1603 45.5152 38.4767 44.6822 38.073 43.7077C37.6693 42.7332 37.5637 41.6608 37.7695 40.6263C37.9752 39.5917 38.4831 38.6414 39.229 37.8955C39.7242 37.4002 40.3122 37.0074 40.9593 36.7393C41.6064 36.4713 42.2999 36.3333 43.0003 36.3333C43.7007 36.3333 44.3943 36.4713 45.0414 36.7393C45.6885 37.0074 46.2764 37.4002 46.7717 37.8955" stroke="#E03B3A" stroke-width="2" stroke-linecap="round" stroke-linejoin="round"/>
<path d="M44.7998 43.4L41.2998 39.9" stroke="#E03B3A" stroke-width="2" stroke-linecap="round" stroke-linejoin="round"/>
<path d="M44.7998 39.9L41.2998 43.4" stroke="#E03B3A" stroke-width="2" stroke-linecap="round" stroke-linejoin="round"/>
</svg>
