<svg width="57" height="58" viewBox="0 0 57 58" fill="none" xmlns="http://www.w3.org/2000/svg">
<path d="M28.4996 15.6406C28.4996 23.0188 22.6405 29 15.4129 29H2.32617V15.6406C2.32617 8.26244 8.18529 2.28125 15.4129 2.28125C22.6405 2.28125 28.4996 8.26244 28.4996 15.6406Z" fill="#EDEDED"/>
<path d="M28.5 42.3594C28.5 34.9812 34.3591 29 41.5867 29H54.6735V42.3594C54.6735 49.7376 48.8143 55.7188 41.5867 55.7188C34.3591 55.7188 28.5 49.7376 28.5 42.3594Z" fill="#EDEDED"/>
<path d="M2.32617 42.3594C2.32617 49.7376 8.18529 55.7188 15.4129 55.7188H28.4996V42.3594C28.4996 34.9812 22.6405 29 15.4129 29C8.18529 29 2.32617 34.9812 2.32617 42.3594Z" fill="#EDEDED"/>
<path d="M54.6735 15.6406C54.6735 8.26244 48.8143 2.28125 41.5867 2.28125H28.5V15.6406C28.5 23.0188 34.3591 29 41.5867 29C48.8143 29 54.6735 23.0188 54.6735 15.6406Z" fill="#6DD6D8"/>
</svg>
