<svg width="28" height="28" viewBox="0 0 28 28" fill="none" xmlns="http://www.w3.org/2000/svg">
<path d="M17.5078 24.437H20.806L25.3291 19.9173C25.5475 19.6986 25.6701 19.4022 25.6701 19.0931C25.6701 18.784 25.5475 18.4876 25.3291 18.2688L23.683 16.6168C23.4642 16.3985 23.1678 16.2758 22.8587 16.2758C22.5497 16.2758 22.2532 16.3985 22.0345 16.6168L17.5113 21.14V24.437H17.5078Z" stroke="white" stroke-width="2" stroke-linecap="round" stroke-linejoin="round"/>
<path d="M23.3262 12.8007V6.9825" stroke="white" stroke-width="2" stroke-linecap="round" stroke-linejoin="round"/>
<path d="M12.8333 19.8007H5.83333C5.21449 19.8007 4.621 19.5548 4.18342 19.1173C3.74583 18.6797 3.5 18.0862 3.5 17.4673V6.94983" stroke="white" stroke-width="2" stroke-linecap="round" stroke-linejoin="round"/>
<path d="M20.9825 4.60367H5.8485C5.54016 4.60321 5.23475 4.66356 4.94976 4.78128C4.66477 4.89899 4.4058 5.07175 4.18766 5.28968C3.96952 5.5076 3.7965 5.7664 3.6785 6.05128C3.5605 6.33615 3.49985 6.64149 3.5 6.94984V6.94984C3.49983 7.33287 3.59354 7.71011 3.77293 8.04855C3.95231 8.38698 4.21191 8.6763 4.529 8.89117L10.78 13.1273C11.5582 13.6548 12.4766 13.9367 13.4167 13.9367C14.3567 13.9367 15.2752 13.6548 16.0533 13.1273L22.2985 8.89234C22.6166 8.67805 22.8773 8.38901 23.0577 8.05055C23.2381 7.71209 23.3328 7.33454 23.3333 6.951V6.951C23.3333 6.32896 23.0863 5.73238 22.6466 5.29242C22.2068 4.85247 21.6104 4.60514 20.9883 4.60484L20.9825 4.60367Z" stroke="white" stroke-width="2" stroke-linecap="round" stroke-linejoin="round"/>
</svg>
