<svg width="70" height="70" viewBox="0 0 70 70" fill="none" xmlns="http://www.w3.org/2000/svg">
<rect width="70" height="70" rx="35" fill="#FDF7EB"/>
<path d="M45.8277 38.8387C46.387 39.3981 46.7679 40.1108 46.9222 40.8867C47.0765 41.6626 46.9972 42.4669 46.6945 43.1977C46.3917 43.9286 45.879 44.5533 45.2212 44.9928C44.5635 45.4323 43.7901 45.6669 42.999 45.6669C42.2079 45.6669 41.4346 45.4323 40.7768 44.9928C40.119 44.5533 39.6063 43.9286 39.3036 43.1977C39.0008 42.4669 38.9215 41.6626 39.0758 40.8867C39.2301 40.1108 39.611 39.3981 40.1704 38.8387C40.5418 38.4672 40.9828 38.1725 41.4681 37.9714C41.9535 37.7703 42.4737 37.6669 42.999 37.6669C43.5244 37.6669 44.0446 37.7703 44.5299 37.9714C45.0153 38.1725 45.4562 38.4672 45.8277 38.8387" stroke="#E7A424" stroke-width="2" stroke-linecap="round" stroke-linejoin="round"/>
<path d="M45.667 33.6667V27.0147" stroke="#E7A424" stroke-width="2" stroke-linecap="round" stroke-linejoin="round"/>
<path d="M33.6667 41.6667H25.6667C24.9594 41.6667 24.2811 41.3857 23.781 40.8856C23.281 40.3855 23 39.7072 23 39V26.9627" stroke="#E7A424" stroke-width="2" stroke-linecap="round" stroke-linejoin="round"/>
<path d="M42.9853 24.3333H25.6813C24.9702 24.3333 24.2882 24.6158 23.7853 25.1187C23.2825 25.6215 23 26.3035 23 27.0147V27.0147C23.0007 27.4518 23.1084 27.8822 23.3136 28.2682C23.5188 28.6543 23.8153 28.9842 24.1773 29.2293L31.32 34.0747C32.2098 34.6775 33.2599 34.9997 34.3347 34.9997C35.4094 34.9997 36.4595 34.6775 37.3493 34.0747L44.4907 29.2293C44.852 28.9839 45.1479 28.6541 45.3529 28.2684C45.5578 27.8827 45.6655 27.4528 45.6667 27.016V27.016C45.6668 26.6638 45.5976 26.315 45.4629 25.9895C45.3283 25.664 45.1308 25.3683 44.8818 25.1191C44.6328 24.87 44.3371 24.6724 44.0117 24.5376C43.6863 24.4027 43.3376 24.3333 42.9853 24.3333V24.3333Z" stroke="#E7A424" stroke-width="2" stroke-linecap="round" stroke-linejoin="round"/>
<path d="M48.3338 47.0027L45.8271 44.496" stroke="#E7A424" stroke-width="2" stroke-linecap="round" stroke-linejoin="round"/>
</svg>
