<svg width="28" height="28" viewBox="0 0 28 28" fill="none" xmlns="http://www.w3.org/2000/svg">
<path d="M15.749 14H22.1657M22.2644 14.3401L24.9885 22.4772C25.2025 23.1165 25.3095 23.4361 25.2327 23.633C25.1661 23.8039 25.0228 23.9335 24.8461 23.9828C24.6426 24.0396 24.3352 23.9013 23.7205 23.6246L4.22375 14.8511C3.6237 14.5811 3.32367 14.4461 3.23094 14.2585C3.15038 14.0956 3.15038 13.9044 3.23094 13.7415C3.32367 13.5539 3.6237 13.4189 4.22375 13.1489L23.7273 4.37234C24.3402 4.09654 24.6466 3.95864 24.8499 4.01521C25.0265 4.06434 25.1697 4.19359 25.2366 4.3642C25.3137 4.56066 25.2078 4.8796 24.9961 5.51748L22.2637 13.7498C22.2273 13.8593 22.2091 13.9141 22.202 13.9701C22.1956 14.0199 22.1957 14.0702 22.2022 14.1199C22.2095 14.1759 22.2278 14.2306 22.2644 14.3401Z" stroke="white" stroke-width="2" stroke-linecap="round" stroke-linejoin="round"/>
</svg>
