<svg width="32" height="32" viewBox="0 0 32 32" fill="none" xmlns="http://www.w3.org/2000/svg">
<g clip-path="url(#clip0_14499_486)">
<path d="M16 23.7656C16 19.7529 19.2893 16.5 23.3469 16.5H30.6938V23.7656C30.6938 27.7783 27.4045 31.0312 23.3469 31.0312C19.2893 31.0312 16 27.7783 16 23.7656Z" fill="#FBAF8E"/>
<path d="M16 9.23438C16 13.2471 12.7107 16.5 8.65306 16.5H1.30612V9.23438C1.30612 5.22168 4.59546 1.96875 8.65306 1.96875C12.7107 1.96875 16 5.22168 16 9.23438Z" fill="#48769F"/>
<path d="M30.6938 9.23438C30.6938 5.22168 27.4045 1.96875 23.3469 1.96875H16V9.23438C16 13.2471 19.2893 16.5 23.3469 16.5C27.4045 16.5 30.6938 13.2471 30.6938 9.23438Z" fill="#FBCF8E"/>
<path d="M1.30612 23.7656C1.30612 27.7783 4.59546 31.0312 8.65306 31.0312H16V23.7656C16 19.7529 12.7107 16.5 8.65306 16.5C4.59546 16.5 1.30612 19.7529 1.30612 23.7656Z" fill="#6DD6D8"/>
</g>
<defs>
<clipPath id="clip0_14499_486">
<rect width="32" height="32" fill="white"/>
</clipPath>
</defs>
</svg>
