<svg width="59" height="58" viewBox="0 0 59 58" fill="none" xmlns="http://www.w3.org/2000/svg">
<path d="M29.4998 15.6406C29.4998 23.0188 23.5379 29 16.1835 29H2.86719V15.6406C2.86719 8.26244 8.8291 2.28125 16.1835 2.28125C23.5379 2.28125 29.4998 8.26244 29.4998 15.6406Z" fill="#6DD6D8"/>
<path d="M29.5 42.3594C29.5 34.9812 35.4619 29 42.8163 29H56.1327V42.3594C56.1327 49.7376 50.1707 55.7188 42.8163 55.7188C35.4619 55.7188 29.5 49.7376 29.5 42.3594Z" fill="#6DD6D8"/>
<path d="M2.86719 42.3594C2.86719 49.7376 8.8291 55.7188 16.1835 55.7188H29.4998V42.3594C29.4998 34.9812 23.5379 29 16.1835 29C8.8291 29 2.86719 34.9812 2.86719 42.3594Z" fill="#6DD6D8"/>
<path d="M44.0507 4.58591L46.1682 10.1129C46.5126 11.0117 46.6848 11.4611 46.9525 11.8391C47.1898 12.1741 47.4814 12.4669 47.8151 12.7051C48.1917 12.9739 48.6393 13.1467 49.5346 13.4924L55.0402 15.6182L49.5346 17.7439C48.6393 18.0896 48.1917 18.2625 47.8151 18.5313C47.4814 18.7695 47.1898 19.0622 46.9525 19.3972C46.6848 19.7752 46.5126 20.2246 46.1682 21.1234L44.0507 26.6504L41.9332 21.1234C41.5888 20.2246 41.4167 19.7752 41.1489 19.3972C40.9116 19.0622 40.62 18.7695 40.2863 18.5313C39.9098 18.2625 39.4621 18.0896 38.5668 17.7439L33.0612 15.6182L38.5668 13.4924C39.4621 13.1467 39.9098 12.9739 40.2863 12.7051C40.62 12.4669 40.9116 12.1741 41.1489 11.8391C41.4167 11.4611 41.5888 11.0117 41.9332 10.1129L44.0507 4.58591Z" fill="#FFC46E"/>
<path d="M33.6718 27.8762V21.7472M33.6718 9.48914V3.36011M30.6191 6.42462H36.7244M30.6191 24.8117H36.7244M44.0507 4.58591L41.9332 10.1129C41.5888 11.0117 41.4167 11.4611 41.1489 11.8391C40.9116 12.1741 40.62 12.4669 40.2863 12.7051C39.9098 12.9739 39.4621 13.1467 38.5668 13.4924L33.0612 15.6182L38.5668 17.7439C39.4621 18.0896 39.9098 18.2625 40.2863 18.5313C40.62 18.7695 40.9116 19.0622 41.1489 19.3972C41.4167 19.7752 41.5888 20.2246 41.9332 21.1234L44.0507 26.6504L46.1682 21.1234C46.5126 20.2246 46.6848 19.7752 46.9525 19.3972C47.1898 19.0622 47.4814 18.7695 47.8151 18.5313C48.1917 18.2625 48.6393 18.0896 49.5346 17.7439L55.0402 15.6182L49.5346 13.4924C48.6393 13.1467 48.1917 12.9739 47.8151 12.7051C47.4814 12.4669 47.1898 12.1741 46.9525 11.8391C46.6848 11.4611 46.5126 11.0117 46.1682 10.1129L44.0507 4.58591Z" stroke="#FFC46E" stroke-width="2" stroke-linecap="round"/>
</svg>
