<svg width="96" height="94" viewBox="0 0 96 94" fill="none" xmlns="http://www.w3.org/2000/svg">
<path d="M48 24.9688C48 37.1363 38.132 47 25.9592 47H3.91837V24.9688C3.91837 12.8012 13.7864 2.9375 25.9592 2.9375C38.132 2.9375 48 12.8012 48 24.9688Z" fill="#FBAF8E"/>
<path d="M48 69.0312C48 56.8637 57.868 47 70.0408 47H92.0816V69.0312C92.0816 81.1988 82.2136 91.0625 70.0408 91.0625C57.868 91.0625 48 81.1988 48 69.0312Z" fill="#48769F"/>
<path d="M3.91837 69.0312C3.91837 81.1988 13.7864 91.0625 25.9592 91.0625H48V69.0312C48 56.8637 38.132 47 25.9592 47C13.7864 47 3.91837 56.8637 3.91837 69.0312Z" fill="#FBCF8E"/>
<path d="M92.0816 24.9688C92.0816 12.8012 82.2136 2.9375 70.0408 2.9375H48V24.9688C48 37.1363 57.868 47 70.0408 47C82.2136 47 92.0816 37.1363 92.0816 24.9688Z" fill="#6DD6D8"/>
</svg>
