<svg width="100" height="100" viewBox="0 0 100 100" fill="none" xmlns="http://www.w3.org/2000/svg">
<g clip-path="url(#clip0_14550_11667)">
<path d="M50.1198 98.1211C23.4811 98.0012 1.87837 76.918 1.47869 50.3393C1.05903 23.3409 22.5818 1.25856 49.7601 1.05872C76.8983 0.878863 98.8008 22.7414 98.7808 49.6598C98.7409 76.2985 76.8584 98.1011 50.1198 98.1211Z" fill="#191847"/>
<path d="M50.1595 96.9625C24.1403 97.0624 2.77743 75.8194 2.69749 49.7403C2.61756 23.6012 23.8006 2.37814 50.0396 2.29821C76.1787 2.19829 97.5616 23.2614 97.5616 49.5404C97.5616 76.0792 76.3786 96.7027 50.1595 96.9625Z" fill="#FCFCFC"/>
<path d="M96.8625 49.0805C97.2023 74.5601 76.4988 95.8631 51.0592 96.2028C25.04 96.5625 3.77699 76.0989 3.43727 50.3994C3.07755 24.4802 23.6411 3.37703 49.6003 3.01732C75.2998 2.65761 96.5028 23.3211 96.8625 49.0805Z" fill="#191746"/>
<path d="M49.8402 4.23633C48.5212 5.19556 47.1623 5.79508 46.6427 7.03409C45.9633 8.69276 44.6243 9.23233 43.1255 9.71195C42.526 9.8918 42.1063 10.3914 41.7666 10.891C41.1271 11.8502 41.3869 12.8295 42.4661 13.1692C43.6851 13.5689 44.3645 14.2683 44.5244 15.5473C44.5844 16.1868 44.7842 16.8462 45.1839 17.3658C45.8633 18.1852 45.5836 18.6648 44.6443 18.9046C44.0248 19.0844 43.4053 19.3642 42.7658 19.4042C39.0688 19.5641 36.1511 21.3227 33.5332 23.7207C32.8737 24.3203 32.514 24.3802 31.8745 23.7207C29.4964 21.2827 25.1999 21.9222 23.5012 24.66C22.3821 26.4386 22.8218 27.4578 24.9001 27.5777C25.6195 27.6176 26.1991 27.7375 26.4189 28.4969C26.5988 29.1764 26.7386 29.8358 26.2191 30.4753C25.6795 31.0948 25.04 30.915 24.4005 30.8351C23.9009 30.7551 23.781 30.3554 23.6012 29.9358C23.1016 28.7767 22.1823 28.5569 21.2231 29.3762C20.2638 30.1956 19.6044 31.2147 19.3046 32.4138C19.1247 33.1132 18.825 33.2731 18.1455 33.1932C16.7866 33.0533 15.6875 33.5928 14.8082 34.612C14.0088 35.5513 13.9489 36.2707 14.9681 36.9102C16.8665 38.1292 18.2454 39.8478 19.8641 41.3666C20.4637 41.9062 20.4237 44.4442 19.8042 44.9637C18.9449 45.7032 18.3054 46.5425 18.3454 47.7415C18.3853 48.2811 18.1255 48.401 17.6459 48.2811C16.4069 48.0013 15.2478 48.1212 14.1087 48.7008C13.4892 49.0005 12.8298 48.6608 12.1903 48.5609C10.5716 48.3211 10.012 48.8606 10.3917 50.4194C10.9313 52.6176 12.1703 54.3562 14.1487 55.4953C14.9281 55.935 15.4077 56.2147 14.6083 57.154C13.769 58.1532 13.6891 59.4122 14.3086 60.5713C14.6083 61.1708 14.6283 61.4905 14.1087 61.9901C12.8098 63.2891 12.55 64.9078 13.2894 66.5465C14.0488 68.2251 14.988 69.8239 16.3669 71.1628C18.4852 73.1812 20.3438 75.3994 21.6227 78.0573C21.8226 78.437 22.1024 78.7967 21.4828 79.1164C20.3837 79.676 20.3038 80.6352 20.6235 81.6744C20.9033 82.5936 21.5228 83.1532 22.482 83.2531C23.6611 83.373 24.5404 82.9334 25.06 81.8942C25.8993 80.2355 25.6995 78.5369 25.2598 76.8183C24.5004 73.9206 23.5412 71.0829 23.2414 68.0853C23.0616 66.2867 23.4813 64.628 24.5604 63.1892C28.5572 57.7335 33.5332 57.094 39.6083 60.0916C41.307 60.931 41.5268 60.951 42.546 59.4122C42.6659 59.2323 42.7458 58.9925 42.9257 58.8926C44.4844 58.0733 45.2438 56.8542 45.5236 55.0557C45.7434 53.6968 45.8633 53.1172 44.5444 52.5577C40.8274 50.959 38.3094 48.0413 36.1911 44.7639C33.9729 41.3466 34.4924 37.7495 35.9713 34.1924C37.3901 30.7751 40.068 28.457 42.9657 26.3187C45.5636 24.3802 48.3014 22.5617 50.1 19.5241C52.6779 23.7008 56.9944 25.7391 60.3717 28.8167C63.4693 31.6544 65.2079 35.1516 65.4876 39.2883C65.6275 41.5465 64.9681 43.6448 63.5892 45.5033C61.3909 48.461 59.0128 51.1788 55.4956 52.6376C55.1759 52.7575 54.8761 52.9973 54.6963 53.2771C54.1567 54.0964 55.1359 57.5137 56.0352 57.9733C56.7946 58.353 57.3741 58.8926 57.8138 59.612C58.5732 60.851 59.0728 60.911 60.3917 60.2315C63.6491 58.5129 67.0264 57.5737 70.6435 58.9925C73.801 60.2315 77.9977 64.4282 76.8785 69.1244C76.279 71.7423 75.5996 74.3203 74.9401 76.9382C74.5404 78.5968 74.3606 80.2755 75.1599 81.8742C75.7395 83.0333 76.9385 83.5329 78.1175 83.1932C79.1967 82.8934 79.8362 81.7943 79.7163 80.5353C79.6763 80.0557 79.5564 79.596 79.1567 79.4162C78.0576 78.9366 78.4373 78.2971 78.837 77.5577C80.096 75.2195 81.7546 73.1412 83.6931 71.3227C85.072 70.0037 86.0512 68.425 86.8506 66.7663C87.6699 65.0677 87.4701 63.369 86.0912 61.9701C85.7315 61.5904 85.5316 61.3307 85.8314 60.7511C86.5508 59.4522 86.4309 58.1332 85.5116 56.9741C84.9521 56.2747 85.1519 55.9949 85.8314 55.6352C87.7898 54.636 89.0288 52.9573 89.7083 50.939C90.3877 48.9006 89.7482 48.2411 87.6499 48.6608C86.9505 48.8007 86.311 48.8406 85.6315 48.4809C84.7123 48.0213 83.6931 48.0213 82.7139 48.2811C82.0944 48.441 81.8346 48.2611 81.8546 47.6016C81.8745 46.4625 81.275 45.6032 80.3957 44.9837C79.8761 44.604 79.9361 44.1844 79.8961 43.6448C79.7163 40.7671 82.2542 39.8079 83.7131 38.0693C83.853 37.9094 84.0528 37.8095 84.2327 37.6696C85.012 37.0501 86.2111 36.7104 85.8913 35.3315C85.6715 34.4122 84.0528 33.1332 82.8338 33.2331C81.4749 33.353 80.9353 32.8734 80.6156 31.6344C80.3757 30.7151 79.7163 29.9558 78.9769 29.3362C78.0576 28.5968 76.9984 28.7567 76.6587 29.8558C76.279 31.0749 75.4197 31.0149 74.6004 30.8351C73.821 30.6752 73.5812 29.9558 73.6611 29.1964C73.761 28.2371 74.1008 27.5377 75.2598 27.5777C75.9992 27.5976 76.8386 27.6176 77.1983 26.8183C77.558 26.0189 77.1383 25.2995 76.7187 24.62C74.9601 21.8822 70.7434 21.3426 68.4053 23.6608C67.7658 24.3203 67.4061 24.3802 66.6667 23.7008C64.0688 21.3027 61.1311 19.5241 57.4341 19.4042C57.0944 19.3842 56.7546 19.2643 56.4149 19.1644C54.5364 18.6248 54.5564 18.6248 55.3158 16.8662C55.5556 16.3267 55.6955 15.7271 55.8154 15.1276C55.9952 14.1884 56.5348 13.6088 57.4341 13.2891C59.0528 12.7095 59.2526 11.7103 58.1135 10.4713C57.3342 9.61203 56.275 9.33225 55.2358 9.05248C54.8961 8.97254 54.4964 9.03249 54.3965 8.57286C53.9769 6.79428 52.598 5.81507 51.1991 4.81586C50.9992 4.67598 50.6995 4.63601 50.6395 4.31626C70.7634 3.93657 93.3054 19.644 95.5236 46.1828C97.6219 71.0029 78.2374 93.405 53.3773 94.9038C27.2183 96.5025 5.45567 76.9981 4.65631 50.839C3.87693 24.7599 24.8402 4.47614 49.8402 4.23633Z" fill="#99D6D5"/>
<path d="M11.251 49.4801C12.9896 49.9197 14.4085 49.8798 15.8273 49.2603C16.5268 48.9405 17.2662 49.3802 18.0056 49.4201C18.8849 49.4801 19.4444 49.2603 19.3845 48.2211C19.3245 47.1419 19.7642 46.2826 20.7034 45.7031C21.3429 45.3034 21.5028 44.7439 21.4428 44.0244C21.3629 43.365 21.223 42.7255 21.5028 42.026C21.7026 41.5464 21.3829 41.1268 20.9632 40.807C19.0847 39.4081 17.8457 37.3098 15.7274 36.1507C15.2078 35.851 15.4077 35.5512 15.7274 35.2315C16.4668 34.4521 17.3461 34.1124 18.4252 34.2722C19.4244 34.4321 20.0639 34.1324 20.2837 33.0133C20.4636 32.034 20.9832 31.1547 21.7026 30.4153C22.1023 29.9757 22.4021 29.8358 22.6618 30.5952C23.1814 32.114 24.4005 32.054 26.0991 31.8742C27.0783 31.7543 27.7378 30.3354 27.6179 29.0364C27.438 27.3178 26.8785 26.7383 25.3597 26.5984C24.92 26.5384 24.2806 26.6983 24.1007 26.1787C23.9408 25.799 24.3605 25.3993 24.6003 25.0396C26.0391 23.0013 28.757 22.7015 30.9152 24.3202C32.7937 25.7391 32.7538 25.6991 34.6123 24.1803C37.0703 22.1619 39.7282 20.5632 43.0256 20.4433C43.9848 20.4033 44.924 20.0836 45.7634 19.624C46.8425 19.0444 47.0224 18.345 46.4029 17.2658C45.9832 16.5464 45.6235 15.787 45.5036 14.9677C45.3037 13.6288 44.5244 12.8294 43.3253 12.3098C43.0655 12.1899 42.6459 12.2299 42.6059 11.8702C42.5659 11.4305 42.9057 11.1507 43.2254 10.9509C43.9248 10.5113 44.7042 10.1915 45.5236 10.0716C46.3029 9.9517 46.7026 9.59199 46.9025 8.77264C47.3021 7.25386 48.6211 6.4545 49.8201 5.59518C50 5.43531 50.2198 5.43531 50.4196 5.5752C51.5987 6.4545 52.9176 7.23387 53.2973 8.79263C53.4972 9.59199 53.9368 9.93171 54.6962 10.0716C55.6355 10.2515 56.5547 10.5113 57.2941 11.1907C57.7538 11.6503 57.8737 11.9901 57.0543 12.2499C55.7154 12.6895 54.916 13.6487 54.6962 15.0676C54.5763 15.847 54.2366 16.5464 53.8369 17.2259C53.2174 18.325 53.4172 19.1044 54.5563 19.6639C55.3557 20.0836 56.255 20.3834 57.1543 20.4233C60.5715 20.5832 63.2893 22.2219 65.7674 24.3202C67.486 25.779 67.446 25.799 69.1646 24.4401C71.4628 22.6016 74.3805 23.0212 75.8393 25.3194C76.3789 26.1787 76.219 26.4785 75.2398 26.5784C73.1215 26.8182 72.6019 27.4577 72.6019 29.576C72.5819 30.7151 73.1415 31.5344 74.1607 31.8742C75.6195 32.3538 77.0983 31.8542 77.518 30.6951C77.8777 29.6959 78.2374 30.0556 78.6371 30.5352C79.2965 31.2946 79.7961 32.1739 79.996 33.1731C80.1758 34.0524 80.6954 34.4121 81.5747 34.2922C82.0943 34.2123 82.6139 34.1923 83.1335 34.3522C83.8529 34.612 84.6323 34.9717 84.7722 35.6911C84.8921 36.2307 84.0527 36.4505 83.6131 36.7503C81.8345 37.9693 80.6954 39.8478 78.9568 41.1068C78.9368 41.1268 78.8969 41.1667 78.8769 41.2067C78.3973 41.8862 78.8569 45.1835 79.5563 45.7031C80.4556 46.3426 80.8953 47.1619 80.8553 48.2411C80.8353 48.9605 81.0551 49.52 81.8545 49.4001C83.3533 49.1603 84.7522 49.2203 86.171 49.7598C86.6307 49.9397 87.2102 49.7998 87.7298 49.7199C88.9888 49.56 89.0887 49.6599 88.5691 50.859C87.8697 52.4377 86.9504 53.8166 85.3517 54.6559C83.673 55.5152 83.5731 56.0748 84.6123 57.5736C85.2318 58.4929 85.4117 59.3921 84.7921 60.3714C84.2526 61.2307 84.3125 61.9101 85.1718 62.6096C86.251 63.4889 86.5308 64.8478 85.9113 66.1268C85.1119 67.7455 84.2126 69.3242 82.8737 70.6232C80.7354 72.6815 78.8369 74.9397 77.5579 77.6376C77.1183 78.5568 76.9984 79.3961 78.0375 79.9757C78.5771 80.2954 78.7969 80.6551 78.5971 81.2547C78.4372 81.7543 78.1175 82.114 77.6179 82.1939C76.9984 82.2738 76.4988 82.014 76.199 81.4545C75.4796 80.1555 75.5595 78.8166 75.9392 77.4377C76.6387 74.7998 77.3781 72.1819 77.8977 69.4841C78.777 65.0077 76.7186 61.9101 73.4013 59.2922C70.2838 56.8342 66.8065 56.9941 63.2294 57.8534C62.0503 58.1332 60.8913 58.5328 59.8921 59.2323C59.2925 59.6519 58.9928 59.532 58.693 58.9325C58.5332 58.5928 58.2134 58.313 57.9736 58.0132C57.9536 57.9733 55.7154 54.4361 55.6954 54.3961C55.3957 53.8766 55.7953 53.6967 56.1551 53.5568C59.8321 51.9981 62.3301 49.1204 64.5683 45.9829C67.426 42.026 66.8865 37.8094 65.2278 33.6128C63.8089 30.0956 61.0112 27.7375 58.0535 25.5392C55.2358 23.4409 52.2981 21.4625 50.5995 18.2251C50.2798 17.5856 49.9001 17.6855 49.6003 18.265C47.9017 21.4425 45.024 23.4209 42.2262 25.4993C39.2686 27.6775 36.4908 30.0556 35.0519 33.5528C33.1535 38.1292 32.8737 42.5856 36.211 46.7822C38.4292 49.56 40.7474 52.1579 44.1247 53.5768C44.5843 53.7567 44.5443 53.9965 44.5244 54.536C44.4244 56.2946 43.1455 57.094 42.1463 58.273C41.167 59.4121 40.6674 59.3722 39.4085 58.7726C36.0711 57.1739 32.454 56.5144 28.9568 58.0732C25.3197 59.6719 21.5028 63.6288 22.1822 68.4649C22.6219 71.4825 23.4612 74.3802 24.2606 77.2978C24.6403 78.6967 24.7802 80.0157 24.1007 81.3346C23.781 81.9541 23.2814 82.2539 22.6219 82.1739C22.0423 82.114 21.7626 81.6743 21.5827 81.1348C21.3829 80.4753 21.8225 80.2155 22.2822 79.9357C23.1814 79.3961 23.1415 78.6368 22.7418 77.7974C21.4628 75.0396 19.5443 72.7415 17.3861 70.6431C16.0471 69.3442 15.1479 67.7854 14.3485 66.1667C13.669 64.8078 13.9488 63.5488 15.1279 62.5496C15.9272 61.8901 15.9672 61.1907 15.4476 60.4113C14.7881 59.3921 14.988 58.4729 15.6475 57.5336C16.6666 56.0948 16.5667 55.5752 14.948 54.6959C12.9296 53.5968 11.9104 51.8582 11.251 49.4801Z" fill="#FEFEFE"/>
<path d="M40.1876 64.2285C40.5673 64.7881 40.907 65.3276 41.2467 65.8472C41.8462 66.7665 42.6256 67.5459 43.6448 67.9855C45.0836 68.605 45.5633 69.6042 45.1436 71.083C44.9238 71.2229 44.7439 71.103 44.5641 71.0031C44.1244 70.7633 43.7247 70.8033 43.385 71.163C43.1652 71.4228 43.1052 71.7025 43.2451 72.0223C43.445 72.5019 43.8446 72.6218 44.3043 72.5219C45.1436 72.322 45.2635 72.7417 45.2635 73.4212C45.2235 74.94 45.2435 76.4587 45.2635 77.9775C45.2635 78.3772 45.0437 78.9567 45.7032 78.9967C46.4026 79.0367 46.3027 78.4172 46.2227 78.0575C45.6632 75.3396 47.3618 73.9208 49.2603 72.5619C49.68 72.2821 49.8798 72.342 50.2595 72.6218C51.9581 73.9008 53.337 75.3196 52.8175 77.6977C52.7775 77.8576 52.7975 78.0375 52.8175 78.2173C52.8175 78.597 52.7375 79.0367 53.337 79.0567C53.8966 79.0966 53.8966 78.677 53.9366 78.2773C54.1564 75.4196 55.935 73.4012 58.7527 72.6418C59.632 72.402 59.8119 72.7017 59.7719 73.5011C59.7119 74.6202 59.7519 75.7593 59.7719 76.8784C59.7719 77.1182 59.7319 77.4579 60.0916 77.4579C60.4713 77.4779 60.3914 77.1182 60.3914 76.8784C60.4114 76.3188 60.5912 75.7393 61.2107 75.7793C61.7103 75.8192 61.9102 76.3588 61.8702 76.8984C61.8502 77.1582 61.7903 77.4579 62.17 77.4979C62.5497 77.5379 62.6496 77.2381 62.7695 76.9383C63.3291 75.5195 64.3882 74.6002 65.827 74.1606C67.6856 73.601 68.6848 74.3604 68.6848 76.2589C68.6848 78.2173 68.6248 80.1758 68.7048 82.1142C68.7447 83.1933 68.3251 83.4332 67.3458 83.4332C62.9494 83.3932 58.5529 83.4531 54.1764 83.4132C53.2771 83.3932 52.8374 83.673 52.3578 84.4523C51.2787 86.2509 51.1388 88.2293 51.0389 90.2077C50.9989 91.067 50.7591 91.7865 49.8199 91.9463C48.9206 92.1262 48.1612 91.7665 47.7215 90.9871C47.2819 90.2077 47.202 89.4084 48.0213 88.7889C48.7407 88.2493 48.6008 87.8296 48.0413 87.2501C47.2219 86.3708 46.3027 85.5115 46.3826 84.1326C46.4226 83.4731 45.923 83.4132 45.3834 83.4132C43.8646 83.4132 42.3458 83.3932 40.8271 83.4132C40.2475 83.4132 39.9478 83.2733 39.9478 82.6138C39.9677 76.5986 39.9677 70.5634 39.9877 64.5483C39.9877 64.4683 40.0677 64.4084 40.1876 64.2285Z" fill="#191746"/>
<path d="M48.2411 45.7827C46.5425 45.7827 44.8438 45.7227 43.1452 45.8027C42.106 45.8626 41.4466 45.4429 41.1668 44.5237C39.2883 37.929 39.0085 33.2327 44.0844 28.4765C46.1028 26.578 47.9414 24.4797 49.8199 22.4214C50.2395 21.9617 50.4394 22.0017 50.7991 22.4413C53.2171 25.4589 55.8151 28.2967 58.1132 31.4142C59.8718 33.7923 59.692 36.4701 59.5121 39.148C59.4122 40.8866 59.0924 42.5852 58.6528 44.2639C58.333 45.5029 57.6536 45.9425 56.3946 45.8027C55.6752 45.7427 55.6951 45.5628 55.875 44.9433C56.6943 42.3254 57.074 39.6476 57.2339 36.8898C57.3538 34.7115 56.7543 32.7931 55.5752 31.0145C54.1364 28.7963 52.5377 26.678 50.839 24.6396C50.5593 24.3198 50.2795 23.7003 49.7599 24.3998C48.0413 26.6979 45.863 28.5764 44.1644 30.9146C42.4458 33.2727 42.3658 35.8107 42.9054 38.4685C43.1652 39.7275 43.9246 39.9473 44.7839 38.9881C45.5033 38.1688 45.9629 38.2087 46.4226 39.168C46.5625 39.4278 46.7223 39.7075 46.9422 39.9074C47.7215 40.7667 47.7015 41.4661 46.6624 42.0656C46.5225 42.1456 46.4026 42.2855 46.2627 42.4054C46.0429 42.6252 45.8031 42.905 46.0629 43.1848C46.3826 43.5245 46.7823 43.3047 46.9422 43.0049C47.3418 42.2655 47.6416 41.7459 48.1212 42.9649C48.321 43.4845 48.7807 43.3446 48.9406 42.885C49.3203 41.8458 49.66 41.8858 50.1196 42.8051C50.3994 43.3846 50.7791 43.3846 50.9989 42.825C51.3986 41.8458 51.7583 41.7859 52.178 42.7651C52.5177 43.5445 53.0373 43.2247 53.4569 42.9849C54.0165 42.6652 53.7367 42.2655 53.437 41.9058C53.1372 41.566 52.4977 41.3063 52.7975 40.7667C53.1572 40.1472 53.6568 39.5477 54.2363 39.108C54.7359 38.7283 56.1348 40.0273 55.9749 40.9266C55.6952 42.4653 55.1756 43.9441 54.7359 45.423C54.576 45.9226 54.0764 45.7827 53.7167 45.7827C51.8782 45.7827 50.0597 45.7827 48.2411 45.7827Z" fill="#191747"/>
<path d="M38.6688 68.7849C38.6688 73.3612 38.6488 77.9575 38.6888 82.5339C38.6888 83.2733 38.3491 83.3932 37.7295 83.3932C33.8526 83.3732 29.9957 83.3932 26.0189 83.3932C28.417 79.876 27.7575 76.5986 25.3994 73.4411C25.919 73.1214 26.3187 73.4012 26.6384 73.621C28.437 74.84 30.3155 75.9991 30.915 78.3172C31.0349 78.7769 31.2747 79.0367 31.8143 79.0167C32.9933 78.9767 34.1724 78.9967 35.3315 78.9967C35.7711 78.9967 36.1508 78.9567 36.1308 78.3972C36.1108 77.8976 35.7511 77.6778 35.3315 77.7177C33.7128 77.8776 33.8527 76.8584 34.0125 75.8392C34.0925 75.3596 34.1324 74.86 34.3722 74.4603C35.5313 72.402 36.8702 70.4435 38.369 68.625C38.469 68.685 38.5689 68.7249 38.6688 68.7849Z" fill="#191847"/>
<path d="M74.1604 83.4128C72.8615 83.4128 71.6624 83.3928 70.4634 83.4128C69.644 83.4328 69.704 82.9132 69.704 82.3737C69.684 79.5959 69.684 76.8181 69.684 74.0603C69.644 69.9036 69.6041 65.747 69.6041 61.5903C69.5841 61.1706 69.4442 60.731 69.8239 60.1914C71.3227 61.6702 72.8215 63.0891 74.2603 64.5479C74.7399 65.0275 74.2803 65.747 74.4802 66.2865C75.1196 67.9652 74.9598 68.7646 72.8814 68.1051C72.3419 67.9252 72.182 68.6446 72.202 69.1243C72.222 69.7637 72.5617 70.3233 73.2412 70.1434C74.5001 69.8237 74.3003 70.5231 74.1804 71.2426C73.9606 72.6215 73.421 73.9204 72.8614 75.1594C71.5425 78.0171 72.0621 80.5351 73.9406 82.9132C74.0005 83.0132 74.0405 83.1331 74.1604 83.4128Z" fill="#191746"/>
<path d="M50.14 69.8234C48.7611 69.9833 47.9217 69.6036 47.6819 68.0648C47.2623 65.307 45.144 64.048 42.8458 63.0688C41.7667 62.6291 41.7667 62.1096 42.2863 61.2303C43.0057 59.9912 43.6651 58.6923 45.2039 58.2926C45.8634 58.1327 45.7835 57.6531 45.8434 57.1935C46.0632 55.0352 47.1624 53.3765 48.6811 51.9177C49.6204 51.0384 50.5996 50.9984 51.5389 51.9177C53.0576 53.4165 54.2567 55.0752 54.3566 57.3134C54.3766 57.8729 54.5564 58.1727 55.116 58.3326C56.8546 58.8522 57.4741 60.3709 58.1935 61.8098C58.4933 62.3893 58.2535 62.6691 57.7139 62.8889C57.2743 63.0688 56.8746 63.3486 56.4349 63.5284C54.0768 64.4677 52.7978 66.2462 52.3582 68.6843C52.0984 70.1032 50.9993 69.7035 50.14 69.8234Z" fill="#1A1847"/>
<path d="M29.616 75.0196C28.1971 73.4408 26.6584 72.6814 25.2395 71.7022C24.9397 71.5024 24.6799 71.2826 24.8198 70.8629C24.9397 70.5032 25.1795 70.3033 25.5992 70.3233C26.0389 70.3433 26.4185 70.1635 26.3586 69.6838C26.2986 69.1243 25.839 69.0843 25.3594 69.1643C24.7799 69.2842 24.2003 69.2642 23.9205 68.6247C23.6408 68.0052 23.8206 67.4456 24.3202 67.006C24.6 66.7662 24.6999 66.4864 24.6999 66.1067C24.6999 64.1483 27.098 60.771 28.8566 60.1315C29.2962 59.9716 29.616 59.9117 29.616 60.5511C29.616 65.2274 29.616 69.9236 29.616 75.0196Z" fill="#191847"/>
<path d="M59.672 64.208C59.672 66.6461 59.672 68.7644 59.672 70.8627C59.672 71.2024 59.5921 71.4622 59.2324 71.5621C57.2939 72.1417 55.6153 73.1608 54.2763 74.8795C53.8367 73.2208 54.0365 72.0218 54.7759 70.6229C55.3954 69.4238 56.0349 68.4846 57.0741 67.6253C58.0933 66.8059 58.413 65.3471 59.672 64.208Z" fill="#1A1847"/>
<path d="M53.877 30.3555C54.0169 30.5353 54.0968 30.5953 54.1368 30.6752C55.3558 32.5737 55.3159 32.7336 53.1976 33.3531C51.2191 33.9126 49.3606 34.712 47.5621 35.6912C46.443 36.2907 45.3638 36.9302 44.6444 38.0093C44.5045 38.2292 44.3446 38.5089 44.0449 38.389C43.7851 38.2891 43.7451 37.9694 43.7451 37.7096C43.7851 36.4306 44.2048 35.3515 45.2839 34.5721C46.8426 33.433 48.5812 32.6936 50.4398 32.174C51.6788 31.8343 53.0177 31.6344 53.877 30.3555Z" fill="#1A1847"/>
<path d="M63.709 41.7662C63.689 44.0244 62.0903 45.823 60.1718 45.783C59.4724 45.763 59.2526 45.5632 59.4524 44.8638C59.6722 43.9645 59.6123 43.0452 60.8713 42.7255C61.6507 42.5256 61.5507 41.7462 60.9512 41.1667C60.4117 40.6271 60.3517 38.4489 60.8313 37.8694C61.1311 37.5296 61.3709 37.7494 61.6307 37.9093C62.7698 38.6287 63.709 40.3674 63.709 41.7662Z" fill="#1A1947"/>
<path d="M39.4484 45.7829C37.6698 45.7829 35.6314 43.145 36.191 41.4664C36.5307 40.4472 37.5499 39.9476 38.5091 39.5679C39.0287 39.3481 38.9488 39.9476 38.9488 40.2474C39.0487 41.7062 39.5883 42.9852 40.3277 44.2242C40.5675 44.6438 41.227 45.0036 40.8473 45.5431C40.5275 46.0427 39.888 45.703 39.4484 45.7829Z" fill="#1B1947"/>
<path d="M49.74 30.1758C50.6193 30.1758 51.4786 30.1758 52.3379 30.1758C52.5777 30.1758 52.8175 30.2157 52.8575 30.4556C52.8975 30.6754 52.7176 30.8552 52.4978 30.9352C51.9582 31.095 51.4186 31.2549 50.8791 31.3748C48.9406 31.7745 47.162 32.4939 45.5433 33.633C45.3435 33.7729 45.1836 34.0926 44.9039 33.8928C44.684 33.7329 44.744 33.4132 44.7839 33.1534C45.1037 31.2149 46.3427 30.1758 48.3211 30.1758C48.8007 30.1758 49.2804 30.1758 49.74 30.1758Z" fill="#1D1C4A"/>
<path d="M51.7983 34.8112C52.9374 34.0319 53.9566 33.832 54.9358 33.5323C55.5353 33.3524 55.8951 33.6122 55.8551 34.2517C55.8151 35.151 55.7152 36.0503 55.6353 36.9495C55.6153 37.2293 55.4954 37.4691 55.2156 37.5491C54.8159 37.6889 54.6561 37.3492 54.5561 37.0894C54.1165 35.9104 53.3371 35.131 51.7983 34.8112Z" fill="#1C1B49"/>
<path d="M51.2391 26.4187C50.9993 26.9782 50.6595 27.5778 50.14 27.6377C49.6603 27.6977 49.1607 27.1181 49.1408 26.6385C49.1008 26.019 49.6404 25.3995 50.1599 25.2996C50.7395 25.1997 50.9193 25.999 51.2391 26.4187Z" fill="#1E1E4A"/>
<path d="M50.4194 29.0162C51.5186 27.3176 51.7783 27.2376 52.5377 28.2169C52.6576 28.3767 52.8175 28.5966 52.7775 28.7564C52.7176 29.0762 52.3779 29.0162 52.1381 29.0162C51.6385 29.0362 51.1189 29.0162 50.4194 29.0162Z" fill="#292D55"/>
<path d="M49.8599 28.9566C49.3403 29.0165 49.1405 29.0365 48.9407 29.0365C48.461 29.0365 47.9814 29.0365 47.4219 29.0365C47.5618 28.3371 47.9215 27.7176 48.4211 27.6376C49.1205 27.4977 49.2005 28.397 49.8599 28.9566Z" fill="#292E55"/>
<path d="M64.7483 78.677C64.3686 78.5372 63.6891 78.9168 63.5492 78.3573C63.4293 77.8977 64.0089 77.5779 64.4085 77.3381C64.7682 77.1183 65.1679 76.9184 65.5676 76.7985C66.1671 76.6187 66.7467 76.7186 66.8866 77.438C67.0065 78.0775 66.6068 78.4772 65.9473 78.5571C65.5676 78.6171 65.1679 78.6371 64.7483 78.677Z" fill="#98D0D1"/>
<path d="M50.8194 78.3169C50.6995 78.9164 50.4197 79.3561 49.7003 79.2961C49.0008 79.2362 48.6811 78.7366 48.7011 78.137C48.7011 77.5775 49.1807 77.2178 49.7602 77.2178C50.3997 77.2378 50.7994 77.5975 50.8194 78.3169Z" fill="#95CCCD"/>
<path d="M57.7737 78.2369C57.6338 78.8164 57.2941 79.2761 56.6346 79.2361C55.9951 79.1961 55.5755 78.8164 55.6154 78.137C55.6554 77.5175 56.0351 77.1977 56.6546 77.1777C57.334 77.1777 57.6738 77.5375 57.7737 78.2369Z" fill="#97CECF"/>
<path d="M50.4396 84.2125C50.3996 84.752 50.1398 85.1118 49.5403 85.0918C49.0407 85.0518 48.7409 84.7121 48.721 84.2325C48.681 83.6929 49.0207 83.2932 49.5603 83.2732C50.1198 83.2532 50.4196 83.6329 50.4396 84.2125Z" fill="#93C7CA"/>
<path d="M44.7842 42.6656C44.7242 43.2251 44.3046 43.5649 43.6851 43.5249C43.0456 43.5049 42.6459 43.0653 42.6858 42.4258C42.7258 41.7863 43.1655 41.3866 43.805 41.4266C44.4045 41.4665 44.8042 41.8662 44.7842 42.6656Z" fill="#98D0D0"/>
<path d="M50.1198 68.6644C49.2605 68.8842 48.9007 68.5245 48.7209 67.6652C48.2213 65.367 46.8024 63.7683 44.6641 62.7291C43.1454 62.0097 42.9655 60.6108 44.5243 59.9713C46.5227 59.192 46.8624 57.8131 47.2221 56.0944C47.4819 54.8554 48.3412 53.8562 49.1805 52.917C49.78 52.2375 50.4395 52.1975 51.039 52.897C52.2381 54.2959 53.3172 55.7747 53.3372 57.7131C53.3572 58.6124 53.7369 59.072 54.5362 59.3119C54.836 59.3918 55.0958 59.5517 55.3756 59.6716C56.2349 60.0912 56.6745 60.9505 56.8544 61.7099C57.0143 62.3894 55.9751 62.5293 55.4555 62.7891C53.3572 63.8083 51.9983 65.387 51.5187 67.6452C51.3188 68.4845 50.9991 68.9042 50.1198 68.6644Z" fill="#FEFEFE"/>
<path d="M38.9685 42.9257C38.8486 43.5252 38.5289 43.8649 37.9893 43.825C37.4697 43.785 37.11 43.4453 37.15 42.8857C37.19 42.3461 37.5497 42.0464 38.0892 42.0664C38.6488 42.1063 38.9086 42.466 38.9685 42.9257Z" fill="#94C9CB"/>
</g>
<defs>
<clipPath id="clip0_14550_11667">
<rect width="100" height="100" fill="white"/>
</clipPath>
</defs>
</svg>
