<svg width="20" height="20" viewBox="0 0 20 20" fill="none" xmlns="http://www.w3.org/2000/svg">
<path d="M16.667 7.91667V6C16.667 5.06658 16.667 4.59987 16.4853 4.24335C16.3255 3.92975 16.0706 3.67478 15.757 3.51499C15.4005 3.33334 14.9337 3.33334 14.0003 3.33334H4.33366C3.40024 3.33334 2.93353 3.33334 2.57701 3.51499C2.2634 3.67478 2.00844 3.92975 1.84865 4.24335C1.66699 4.59987 1.66699 5.06658 1.66699 6V14C1.66699 14.9334 1.66699 15.4001 1.84865 15.7567C2.00844 16.0703 2.2634 16.3252 2.57701 16.485C2.93353 16.6667 3.40024 16.6667 4.33366 16.6667L14.0003 16.6667C14.9337 16.6667 15.4005 16.6667 15.757 16.485C16.0706 16.3252 16.3255 16.0703 16.4853 15.7567C16.667 15.4001 16.667 14.9334 16.667 14V12.0833M12.5003 10C12.5003 9.61279 12.5003 9.41918 12.5324 9.25819C12.6639 8.59703 13.1807 8.0802 13.8418 7.94869C14.0028 7.91667 14.1964 7.91667 14.5837 7.91667H16.2503C16.6375 7.91667 16.8311 7.91667 16.9921 7.94869C17.6533 8.08021 18.1701 8.59703 18.3016 9.25819C18.3337 9.41918 18.3337 9.61279 18.3337 10C18.3337 10.3872 18.3337 10.5808 18.3016 10.7418C18.1701 11.403 17.6533 11.9198 16.9921 12.0513C16.8311 12.0833 16.6375 12.0833 16.2503 12.0833H14.5837C14.1964 12.0833 14.0028 12.0833 13.8418 12.0513C13.1807 11.9198 12.6639 11.403 12.5324 10.7418C12.5003 10.5808 12.5003 10.3872 12.5003 10Z" stroke="white" stroke-width="1.5" stroke-linecap="round" stroke-linejoin="round"/>
</svg>
