<svg xmlns="http://www.w3.org/2000/svg" width="20" height="20" viewBox="0 0 20 20" fill="none">
  <g clip-path="url(#clip0_14579_208)">
    <path d="M5.07847 9.35729C5.02668 9.02348 4.99981 8.68151 4.99981 8.33329C4.99981 4.65139 8.00421 1.66663 11.7103 1.66663C15.4165 1.66663 18.4209 4.65139 18.4209 8.33329C18.4209 9.16502 18.2675 9.96117 17.9875 10.6954C17.9293 10.8479 17.9002 10.9241 17.887 10.9836C17.8739 11.0426 17.8689 11.0841 17.8674 11.1445C17.866 11.2055 17.8743 11.2726 17.8908 11.4069L18.2263 14.1321C18.2626 14.4271 18.2808 14.5746 18.2317 14.6818C18.1887 14.7758 18.1123 14.8504 18.0174 14.8912C17.9091 14.9378 17.762 14.9162 17.4679 14.8731L14.8135 14.4841C14.675 14.4637 14.6056 14.4536 14.5425 14.4539C14.4801 14.4543 14.4369 14.4589 14.3758 14.4717C14.314 14.4847 14.2351 14.5143 14.0773 14.5734C13.3412 14.8491 12.5435 15 11.7103 15C11.3618 15 11.0196 14.9736 10.6854 14.9227M6.35949 18.3333C8.83023 18.3333 10.8332 16.2813 10.8332 13.75C10.8332 11.2187 8.83023 9.16663 6.35949 9.16663C3.88874 9.16663 1.8858 11.2187 1.8858 13.75C1.8858 14.2588 1.96673 14.7482 2.11613 15.2056C2.17928 15.3989 2.21085 15.4955 2.22122 15.5616C2.23204 15.6305 2.23393 15.6692 2.2299 15.7389C2.22604 15.8056 2.20935 15.881 2.17596 16.0319L1.6665 18.3333L4.16217 17.9925C4.29839 17.9739 4.3665 17.9646 4.42598 17.965C4.4886 17.9654 4.52184 17.9688 4.58326 17.981C4.64159 17.9926 4.7283 18.0233 4.90173 18.0845C5.35866 18.2457 5.84909 18.3333 6.35949 18.3333Z" stroke="#7A7E83" strokeWidth="1.5" strokeLinecap="round" strokeLinejoin="round"/>
  </g>
  <defs>
    <clipPath id="clip0_14579_208">
      <rect width="20" height="20" fill="white"/>
    </clipPath>
  </defs>
</svg>